<svg xmlns="http://www.w3.org/2000/svg" width="300" height="94" viewBox="0 0 300 94" version="1.1"><path d="M 92.462 47 C 92.462 73.125, 92.591 83.813, 92.749 70.750 C 92.907 57.688, 92.907 36.313, 92.749 23.250 C 92.591 10.188, 92.462 20.875, 92.462 47" stroke="none" fill="#cccccc" fill-rule="evenodd"/><path d="M 10.500 9.939 L 10.500 19.879 12.852 17.689 C 14.145 16.485, 18.355 12.013, 22.208 7.750 L 29.212 0 19.856 0 L 10.500 0 10.500 9.939 M 32.524 9.881 C 21.932 21.316, 21.881 18.666, 32.987 33.697 C 43.817 48.352, 43.873 45.305, 32.558 57.092 L 23.117 66.929 31.175 77.715 C 35.607 83.647, 39.454 89.063, 39.723 89.750 C 40.303 91.228, 42 91.430, 42 90.021 C 42 89.482, 46.050 79.523, 51 67.890 L 60 46.739 60 37.648 L 60 28.558 51.453 14.279 C 41.375 -2.556, 43.572 -2.046, 32.524 9.881 M 59.664 9 C 62.309 13.950, 64.704 17.999, 64.987 17.997 C 65.509 17.994, 75 1.408, 75 0.498 C 75 0.224, 70.467 0, 64.928 0 L 54.855 0 59.664 9 M 84.231 4.750 C 82.594 7.362, 78.722 13.795, 75.627 19.044 L 70 28.587 70 38.074 L 70 47.561 79.788 70.460 C 85.172 83.054, 90.122 93.541, 90.788 93.763 C 91.726 94.075, 92 83.513, 92 47.083 L 92 0 89.604 0 C 87.831 0, 86.435 1.234, 84.231 4.750 M 103 19 L 103 38 114.500 38 L 126 38 126 43 L 126 48 123.750 48.004 L 121.500 48.007 124.701 49.960 C 133.240 55.166, 133.353 69.898, 124.898 75.562 C 121.255 78.003, 121.084 77.237, 127.250 86.096 L 132.500 93.640 132.500 46.820 L 132.500 0.001 117.750 0 L 103 0 103 19 M 168 5 L 168 10 155.500 10 L 143 10 143 14.500 L 143 19 154 19 L 165 19 165 23.500 L 165 28 154 28 L 143 28 143 33 L 143 38 156 38 L 169 38 169 42.443 L 169 46.885 164.750 47.193 L 160.500 47.500 163.771 49.478 C 178.906 58.630, 169.476 80, 150.304 80 L 144 80 144 87.033 L 144 94.066 155.133 93.783 L 166.265 93.500 176.378 69.750 L 186.490 46 191.300 46 L 196.110 46 198.380 51.250 C 199.629 54.138, 204.212 64.938, 208.566 75.250 L 216.481 94 221.990 93.984 L 227.500 93.967 223.547 91.728 C 206.891 82.294, 208.018 56.488, 225.440 48.376 C 233.916 44.429, 245.805 45.441, 251.977 50.634 L 255.016 53.192 251.920 57.101 L 248.824 61.011 245.753 58.824 C 238.595 53.727, 228.157 55.935, 224.670 63.283 C 217.923 77.502, 231.336 90.214, 244.903 82.459 L 249.306 79.942 252.112 83.221 C 255.785 87.512, 255.776 87.552, 250.304 91.022 L 245.608 94 251.804 94 L 258 94 258 70.500 L 258 47 263.500 47 L 269 47 269.040 56.750 L 269.080 66.500 278.290 56.725 L 287.500 46.951 293.750 46.975 L 300 47 300 23.500 L 300 0 234 0 L 168 0 168 5 M 12.937 30.750 L 10.500 33.500 11 49.874 L 11.500 66.249 20.631 56.350 L 29.762 46.451 23.131 37.286 C 15.525 26.773, 16.122 27.156, 12.937 30.750 M 290.664 56.940 C 280.406 67.584, 280.356 65.564, 291.254 80.437 L 299.500 91.691 299.783 80.846 C 299.938 74.881, 299.938 64.998, 299.783 58.885 L 299.500 47.770 290.664 56.940 M 144 62.949 L 144 70 150 70 C 163.978 70, 163.715 56.695, 149.726 56.129 L 144 55.897 144 62.949 M 103 63.500 L 103 70 109.545 70 L 116.091 70 118.641 67.450 C 124.123 61.968, 119.924 57, 109.809 57 L 103 57 103 63.500 M 61.745 66.905 C 60.235 70.786, 58.999 74.083, 58.999 74.231 C 58.998 74.379, 61.473 74.346, 64.499 74.157 C 70.824 73.764, 70.850 73.682, 67.169 65.674 L 64.491 59.848 61.745 66.905 M 190.145 62.008 C 189.577 63.379, 188.212 66.638, 187.112 69.250 L 185.112 74 191.012 74 L 196.911 74 195.551 70.250 C 194.803 68.188, 193.513 64.929, 192.684 63.008 L 191.177 59.517 190.145 62.008 M 13.174 77.314 C 11.358 79.247, 11 80.813, 11 86.814 L 11 94 20.594 94 L 30.188 94 26.406 88.750 C 24.327 85.862, 21.273 81.588, 19.620 79.250 C 16.121 74.301, 16.031 74.274, 13.174 77.314 M 271.174 77.314 C 269.358 79.247, 269 80.813, 269 86.814 L 269 94 278.550 94 C 286.159 94, 287.937 93.734, 287.300 92.691 C 284.896 88.758, 274.553 75, 273.999 75 C 273.641 75, 272.370 76.042, 271.174 77.314 M 103 86.500 L 103 94 111.598 94 L 120.196 94 118.348 91.081 C 117.332 89.476, 115.047 86.101, 113.271 83.581 L 110.041 79 106.521 79 L 103 79 103 86.500 M 53.047 88.627 C 51.921 91.172, 51 93.422, 51 93.627 C 51 93.832, 57.075 94, 64.500 94 C 71.925 94, 78 93.678, 78 93.283 C 78 92.889, 77.264 90.639, 76.364 88.283 L 74.728 84 64.911 84 L 55.094 84 53.047 88.627 M 179.189 89 L 177.111 94 191.055 94 C 198.725 94, 205 93.832, 205 93.627 C 205 93.422, 204.079 91.172, 202.953 88.627 L 200.906 84 191.087 84 L 181.267 84 179.189 89" stroke="none" fill="#c3c3c3" fill-rule="evenodd"/></svg>